<?xml version="1.0" encoding="UTF-8"?>
<svg id="Camada_1" data-name="Camada 1" xmlns="http://www.w3.org/2000/svg" viewBox="0 0 81.81 94.36">
  <defs>
    <style>
      .cls-1 {
        fill: #d58616;
      }

      .cls-1, .cls-2 {
        stroke-width: 0px;
      }

      .cls-2 {
        fill: #5a9644;
      }
    </style>
  </defs>
  <path class="cls-1" d="M57.2,70.2c-1.16,3.56-2.94,6.6-5.34,9.11-2.4,2.51-5.47,4.45-9.22,5.8-3.75,1.35-8.3,2.03-13.64,2.03s-9.44-.68-13-2.03c-3.56-1.35-6.5-3.29-8.82-5.8-2.32-2.51-4.06-5.55-5.22-9.11-1.16-3.56-1.82-7.58-1.97-12.07.15-4.49.81-8.55,1.97-12.18,1.16-3.64,2.9-6.75,5.22-9.34,2.32-2.59,5.26-4.6,8.82-6.03,3.56-1.43,7.89-2.15,13-2.15,3.48,0,6.56.41,9.23,1.22s5.12,1.76,7.37,2.84l.23-32.49h13.34v58.13c-.16,4.49-.81,8.51-1.97,12.07ZM44.67,46.36c-.77-2.67-1.88-4.83-3.31-6.5-1.43-1.66-3.15-2.86-5.16-3.6-2.01-.73-4.22-1.06-6.61-.99-2.4-.08-4.6.23-6.61.93-2.01.7-3.73,1.88-5.16,3.54-1.43,1.66-2.53,3.85-3.31,6.56-.77,2.71-1.16,6-1.16,9.86v4.06c0,3.87.39,7.12,1.16,9.75.77,2.63,1.87,4.72,3.31,6.27,1.43,1.55,3.15,2.63,5.16,3.25,2.01.62,4.22.89,6.61.81,2.4.08,4.6-.21,6.61-.87,2.01-.66,3.73-1.76,5.16-3.31,1.43-1.55,2.53-3.61,3.31-6.21.77-2.59,1.16-5.82,1.16-9.69v-4.06c0-3.87-.39-7.14-1.16-9.8Z"/>
  <path class="cls-2" d="M33.11,92.22s18.9-3.67,26.66-14.3c.41-.57.76-1.19,1.06-1.83,1.55-3.29,2.33-5.7,3.2-8.86.84-3.01,2.59-6.1,6.07-7.89,2.01-1.22,10.45-2.21,11.6,5.96.19,1.37.09,2.77-.15,4.13-1.23,7.01-5,12.2-10.72,16.73-6.71,5.31-22.34,11.58-37.73,6.07Z"/>
</svg>